<svg xmlns="http://www.w3.org/2000/svg" xmlns:xlink="http://www.w3.org/1999/xlink" width="2512" height="2512"
    viewBox="0 0 2512 2512">
    <defs>
        <filter id="a" x="203.63" y="181" width="2104.74" height="2150" filterUnits="userSpaceOnUse">
            <feOffset input="SourceAlpha" />
            <feGaussianBlur stdDeviation="25" result="b" />
            <feFlood flood-color="#fff" flood-opacity="0.161" />
            <feComposite operator="in" in2="b" />
            <feComposite in="SourceGraphic" />
        </filter>
        <clipPath id="d">
            <rect width="2512" height="2512" />
        </clipPath>
    </defs>
    <g id="c" clip-path="url(#d)">
        <g transform="matrix(1, 0, 0, 1, 0, 0)" filter="url(#a)">
            <path
                d="M1186.768,2072.3c-14.8-5.379-26.3-18-29.039-33.506l-15.636-93.818v-2.234h-2.234l-377.505,67.013c-15.239,2.686-32.372.828-46.909-4.467s-25.793-12.712-35.74-24.572L98.927,1288.247c-9.929-11.837-17.42-24.981-20.1-40.208s-.814-32.388,4.467-46.909L215.083,839.262h0L123.5,805.756c-14.792-5.394-24.079-18-26.805-33.506s1.338-30.087,13.4-40.208L317.836,557.808h0L391.55,352.3c5.287-14.541,14.956-25.793,26.805-35.74a93.321,93.321,0,0,1,42.441-20.1L673,258.485h2.234l205.506-172c5.924-4.972,12.661-9.858,20.1-11.169a43.266,43.266,0,0,1,22.338,2.234c14.8,5.38,26.3,18,29.039,33.506l15.636,93.818v2.234h2.234L1347.6,140.1c15.237-2.686,32.37-.824,46.909,4.467s25.8,12.718,35.74,24.571L2011.024,861.6a93.449,93.449,0,0,1,20.1,42.441c2.684,15.221.813,30.148-4.468,44.675l-131.792,361.869h0l91.584,33.506c14.792,5.388,24.077,18,26.8,33.506s-1.338,30.081-13.4,40.208l-207.74,174.233h0L1718.4,1797.544c-5.287,14.539-14.954,25.793-26.805,35.74a93.257,93.257,0,0,1-42.441,20.1l-212.207,37.974h-2.234L1229.209,2065.6a41.476,41.476,0,0,1-20.1,8.935h0c-2.439.429-4.221,0-6.7,0C1197.316,2074.53,1191.646,2074.07,1186.768,2072.3Zm100.519-154.129-71.48,11.169h-2.233v2.234l8.935,40.208v2.234h2.234l62.545-53.61,2.234-4.468ZM286.563,866.067l-120.623,330.6c-8.3,22.8-4.432,48.424,11.169,67.013L715.445,1907c15.6,18.584,40.888,26.549,64.779,22.338l346.232-60.312h2.234v-2.234l-96.052-538.336c-32.5,10.6-65.586,21.192-100.519,33.506-23,44.938-44.432,89.7-62.545,129.558-18.124,39.882-33.481,73.4-44.675,100.519s-18.636,46.411-24.571,55.844c-2.967,4.716-7.526,8.431-11.169,11.169s-6.849,3.705-11.169,4.468c-7.368,1.3-15.552-.155-22.338-2.234s-11.668-5.712-17.87-11.169c-5.47-4.276-11.235-8.545-13.4-13.4a63.571,63.571,0,0,1-4.468-15.636l-2.234-15.636c-1.076-6.1-.078-16.185,4.467-29.039s16.983-38.989,35.74-78.182c18.771-39.211,31.662-69.514,40.208-89.35a434.819,434.819,0,0,1-49.143,11.169,177.17,177.17,0,0,1-37.974,2.234c-11.162-.521-19.928-3.33-29.039-6.7s-17.155-5.924-22.338-11.169-7.68-12.989-8.935-20.1c-1.433-8.132-2.859-15.488-2.234-24.571a152.448,152.448,0,0,1,4.468-29.038,169.747,169.747,0,0,1,11.169-29.039,141.988,141.988,0,0,1,15.636-24.572c5.764-7.436,11.557-13.548,17.87-17.87s13.242-5.491,20.1-6.7c9.143-1.612,19.814-1.115,33.506,2.234l189.869-84.883c11.859-18.467,22.409-36.082,33.506-53.61l22.338,6.7h0v2.234l35.74,203.272c24.764-8.077,50.416-15.282,73.714-22.337h0l-26.805-151.9v-2.234h0a43.449,43.449,0,0,0,11.169,0,41.481,41.481,0,0,0,20.1-8.935c8.924-7.487,14.619-17.632,15.636-29.039v-2.234h2.234L1463.754,1232.4c-38.121,1.733-88.649,9.346-149.662,20.1-9.875,33.2-19.24,59.447-24.572,78.182-5.342,18.767-8.061,37.091-11.169,53.61s-4.562,31.463-2.234,44.675c1.436,8.132,6.2,18.656,13.4,31.272s10.811,20.305,11.169,22.338c.9,5.082.563,9.575-2.234,15.636a76.8,76.8,0,0,1-13.4,20.1c-12.973,14.077-30.591,28.027-49.143,40.208s-33.5,18.132-44.675,20.1c-4.7.828-9.565,1.156-13.4,0s-5.956-3.557-8.935-6.7c-5.955-6.284-10.893-17.043-13.4-31.273-2.6-14.738-2.905-30.85-2.234-49.143a428.932,428.932,0,0,1,6.7-60.311c3.94-21.851,8.425-46.075,15.636-71.481s16.323-53.683,26.805-82.649c-30.811,8.085-61.668,18.623-96.051,29.039l93.818,547.271,2.234,2.234h0l203.272-35.74h2.234l319.428-268.051V1549.6h0l71.48-194.337h-2.234L1461.52,1232.4c.519-.026,1.721.022,2.234,0,.424-.018,1.812.018,2.233,0l33.506-64.779-270.284-98.286c17.458-5.082,37.845-12.812,62.545-20.1,50.384-109.492,93.68-198.051,125.09-263.584,31.4-65.516,58.207-119.57,80.415-163.065,22.195-43.464,35.6-69.359,40.208-75.948,3.269-5.438,5.787-10.417,8.935-13.4a15.814,15.814,0,0,1,8.935-4.467,11.969,11.969,0,0,1,4.468,0,18.049,18.049,0,0,1,11.169,8.935c2.645,4.972,2.855,10.956,4.467,20.1,3.675,20.835,6.456,39.636,4.468,53.61s-6.541,27.87-13.4,42.441-10.843,23.468-11.169,24.571c-9.37,24.2-23.777,56.367-42.441,96.052-18.671,39.705-38.05,79.617-55.844,118.389s-38.151,83.613-60.311,136.259c28.65-4,58.4-5.435,87.116-6.7s58.3-1.472,87.117,0l-71.481,145.194,323.9,116.155v0l120.623-330.6c8.3-22.8,4.432-48.424-11.169-67.013L1394.507,242.849c-15.595-18.584-40.885-26.551-64.779-22.338L983.5,280.822h-2.234v2.234l46.909,263.583c-23.129,7.38-47.172,17.169-71.48,26.8L909.781,296.459l-2.234-2.234h0l-203.272,35.74h-2.234L382.615,600.25h0l-71.48,194.337h2.234l172,62.545c-10.255,10.154-17.841,19.608-22.338,26.805-6.353,10.217-11.423,24.277-15.636,40.208L286.563,866.067Zm1387.164,826.491-118.389,98.285-2.234,2.234h2.234l51.377-8.935c23.893-4.214,43.078-21.88,51.376-44.675l17.87-46.909v-2.234Zm194.337-310.493-24.571,67.013v4.468l2.234-2.234,64.779-53.61v-2.234h0l-40.208-15.636h-2.234ZM264.225,698.535l-64.779,53.61v2.234h0l40.208,15.636h2.234v-2.234l24.571-67.013V696.3ZM554.614,356.77l-51.376,8.935c-23.889,4.212-43.076,21.879-51.376,44.675l-17.87,46.909v4.467l2.234-4.467L554.614,359l2.234-2.234Zm330.6-178.7-62.545,51.376-2.234,4.468,2.234-2.234,71.48-11.169h2.234v-2.234l-8.935-40.208v-2.234Zm89.35,938.178L641.731,995.625l51.376-40.208c7.608-5.643,13.018-11.555,17.87-15.636L673,926.379c.08,0-.08-.006,0,0a181.732,181.732,0,0,0,31.272,0c12.123-1.09,17.424-.305,17.87,2.234.36,2.034-1.484,4.347-6.7,8.935-.927.813-3.415,1.348-4.467,2.234l270.285,98.285H983.5v-2.234c1.023-11.407,6.714-21.552,15.636-29.038a41.476,41.476,0,0,1,20.1-8.935,43.272,43.272,0,0,1,11.169,0h0v-2.234L981.262,709.7c-21.321,10.928-44.475,23.975-69.247,37.974C864.838,774.338,805.2,810.131,735.549,854.9c-25.932,16.362-45.378,30.5-58.078,40.208s-18.409,17.054-17.87,20.1c.634,3.606,2.1,4.74,4.468,6.7L673,926.379h0c-3.7-.359-6.707-2.7-8.935-4.468l-178.7-64.779c2.511-2.485,3.935-4.12,6.7-6.7,14.167-13.226,33.147-29.292,55.844-46.909,22.928-17.8,50.119-34.841,78.182-53.61s58.385-38.338,91.584-58.078,67.627-40.356,102.753-58.078,72.4-33.44,109.454-49.143c9.324-3.95,17.636-7.534,26.805-11.169L981.262,709.7c19.225-9.849,37.209-17.227,53.61-24.571,5.832-2.611,10.436-6.732,15.636-8.935v-8.935l44.675,252.415c-31.915,55.3-73.14,121.577-120.623,196.571Zm100.519,0c18.506-30.193,35.775-59.217,51.376-84.883l-13.4-4.468h0v-2.233l-17.87-104.987c16.043-27.8,30.357-53.156,42.441-75.948,20.839-39.3,35.13-71.443,44.675-96.052s12.916-43.7,11.169-53.61c-1.972-11.18-6-18.277-13.4-24.571a62.325,62.325,0,0,0-29.039-13.4,104.074,104.074,0,0,0-37.974,0c-13.986,2.467-33.837,8.874-60.312,20.1L1028.171,546.64c9.668-3.088,19.655-6.263,29.039-8.935,27.391-7.8,54.652-13.326,80.415-17.87a290.373,290.373,0,0,1,60.312-4.467c17.142.645,30.515,3.7,42.441,8.935,5.965,2.617,12.726,5.395,17.87,11.169s9.076,13.407,13.4,22.338,7.661,19.184,11.169,31.272,8.481,27.2,11.169,42.442c2.913,16.515,2.419,34.254,0,53.61s-7.89,40.351-15.636,62.545-16.673,44.987-26.805,67.013-20.988,45.156-33.506,67.013c-18.241,31.843-50.152,81.5-91.584,149.662l102.753,37.974c-24.173,7.041-43.912,12.343-55.844,15.636-20.989,5.8-53.812,16.1-98.285,31.273ZM474.2,1098.378c-6.218-1.458-11.079-4.631-15.637-8.935s-7.97-10.508-11.169-17.87-7.1-16.387-8.935-26.805c-2.107-11.942-2.344-23.741-2.234-37.974s2.141-30.384,4.468-46.909a310.386,310.386,0,0,1,6.7-35.74l194.337,71.48-98.285,75.948c-23.168,17.183-38.266,25.281-46.909,26.805-3.841.677-7.7,2.234-11.169,2.234C481.721,1100.612,477.384,1099.125,474.2,1098.378Z"
                transform="translate(201.02 181.28)" fill="#fff" />
        </g>
    </g>
</svg>