<svg width="142" height="130" viewBox="0 0 142 130" fill="none" xmlns="http://www.w3.org/2000/svg">
<g clip-path="url(#clip0_26_2)">
<path fill-rule="evenodd" clip-rule="evenodd" d="M121 70.5C121 70.6669 120.999 70.8335 120.998 71H113.998C113.999 70.9198 113.999 70.8394 114 70.7591C114 70.6956 114 70.6321 114 70.5686C114 46.5063 94.5244 27 70.5 27C50.3877 27 33.4633 40.6709 28.4848 59.2409L21.72 57.3839C27.495 35.8525 47.1462 20 70.5 20C98.3904 20 121 42.6096 121 70.5ZM36.2159 61.3632C40.2842 46.1775 54.0921 35 70.5 35C90.1061 35 106 50.9597 106 70.6471C106 70.7648 105.999 70.8825 105.998 71H98.9682C98.969 70.9274 98.9697 70.8547 98.97 70.7819C98.9702 70.737 98.9703 70.692 98.9703 70.6471C98.9703 54.8582 86.2237 42.0588 70.5 42.0588C57.3328 42.0588 46.2533 51.0345 42.9986 63.2251L36.2159 61.3632Z" fill="#E50914"/>
<path d="M0 70.48C0 51.7624 7.43556 33.8113 20.6709 20.5759C33.9063 7.34056 51.8573 -0.0950012 70.575 -0.0950012C89.2927 -0.0950012 107.244 7.34056 120.479 20.5759C133.714 33.8113 141.15 51.7624 141.15 70.48V77.86H122.15V70.56H131.54V70.48C130.934 54.719 124.247 39.8053 112.882 28.8687C101.517 17.932 86.3576 11.8226 70.585 11.8226C54.8124 11.8226 39.6529 17.932 28.2878 28.8687C16.9228 39.8053 10.2357 54.719 9.63 70.48V70.56H19.02V77.86H0.0200043V70.48H0Z" fill="#E50914"/>
<path d="M65.9568 64.1553L11.8652 54.8379L63.3686 73.8146C64.0343 75.3325 65.1551 76.6061 66.576 77.4594C67.9968 78.3128 69.6477 78.7038 71.3004 78.5783C72.9531 78.4529 74.526 77.8172 75.8018 76.7591C77.0776 75.701 77.9933 74.2728 78.4223 72.6718C78.8513 71.0709 78.7724 69.3761 78.1965 67.8219C77.6207 66.2677 76.5764 64.9307 75.2078 63.9957C73.8393 63.0607 72.2141 62.5739 70.5569 62.6025C68.8997 62.631 67.2922 63.1737 65.9568 64.1553Z" fill="black"/>
<path d="M21.3613 117.546C21.3613 116.868 21.2569 116.26 21.0483 115.721C20.857 115.165 20.4919 114.661 19.9528 114.209C19.4138 113.74 18.6574 113.279 17.6837 112.828C16.71 112.376 15.4493 111.906 13.9018 111.42C12.1804 110.864 10.5459 110.238 8.99834 109.543C7.46818 108.848 6.11191 108.039 4.92952 107.118C3.76452 106.18 2.84295 105.094 2.16482 103.86C1.50407 102.626 1.1737 101.192 1.1737 99.5582C1.1737 97.9766 1.52146 96.5428 2.21698 95.2567C2.9125 93.9532 3.88624 92.8409 5.13818 91.9198C6.39012 90.9813 7.86811 90.26 9.57214 89.756C11.2936 89.252 13.1802 89 15.232 89C18.0314 89 20.4745 89.504 22.561 90.512C24.6476 91.5201 26.2647 92.9017 27.4123 94.6571C28.5773 96.4124 29.1598 98.4198 29.1598 100.679H21.3873C21.3873 99.5668 21.1526 98.5936 20.6831 97.7594C20.231 96.9078 19.5355 96.2386 18.5966 95.752C17.675 95.2654 16.51 95.0221 15.1016 95.0221C13.7453 95.0221 12.6151 95.2306 11.7109 95.6477C10.8067 96.0475 10.1286 96.5949 9.67647 97.2901C9.22438 97.9679 8.99834 98.7326 8.99834 99.5842C8.99834 100.227 9.15483 100.809 9.46781 101.331C9.79819 101.852 10.2851 102.339 10.9284 102.791C11.5718 103.243 12.3629 103.668 13.3019 104.068C14.2408 104.468 15.3276 104.859 16.5622 105.241C18.6313 105.867 20.4484 106.571 22.0133 107.353C23.5956 108.135 24.9171 109.013 25.9778 109.986C27.0385 110.959 27.8383 112.063 28.3774 113.297C28.9164 114.531 29.1859 115.93 29.1859 117.494C29.1859 119.145 28.8642 120.622 28.2209 121.926C27.5775 123.229 26.6472 124.333 25.4301 125.237C24.2129 126.14 22.761 126.827 21.0744 127.296C19.3877 127.765 17.5011 128 15.4145 128C13.5366 128 11.6848 127.757 9.85905 127.27C8.0333 126.766 6.37273 126.01 4.87736 125.002C3.39937 123.994 2.21698 122.708 1.33019 121.144C0.443396 119.58 0 117.729 0 115.591H7.85072C7.85072 116.773 8.0333 117.772 8.39845 118.589C8.7636 119.406 9.27654 120.066 9.93729 120.57C10.6154 121.074 11.4153 121.439 12.3368 121.665C13.2758 121.891 14.3017 122.004 15.4145 122.004C16.7708 122.004 17.8836 121.813 18.7531 121.43C19.6398 121.048 20.2919 120.518 20.7092 119.84C21.1439 119.162 21.3613 118.398 21.3613 117.546Z" fill="black"/>
<path d="M58.9195 121.378V127.479H39.8013V121.378H58.9195ZM42.3313 89.5214V127.479H34.5067V89.5214H42.3313Z" fill="black"/>
<path d="M92.8785 107.614V109.412C92.8785 112.297 92.4872 114.887 91.7048 117.181C90.9223 119.475 89.8182 121.43 88.3923 123.047C86.9665 124.646 85.2625 125.871 83.2802 126.723C81.3154 127.574 79.1332 128 76.7336 128C74.3515 128 72.1693 127.574 70.187 126.723C68.2222 125.871 66.5181 124.646 65.0749 123.047C63.6317 121.43 62.5102 119.475 61.7103 117.181C60.9279 114.887 60.5366 112.297 60.5366 109.412V107.614C60.5366 104.711 60.9279 102.122 61.7103 99.8449C62.4928 97.5508 63.5969 95.5956 65.0228 93.9793C66.466 92.363 68.17 91.129 70.1349 90.2774C72.1171 89.4258 74.2993 89 76.6815 89C79.081 89 81.2632 89.4258 83.2281 90.2774C85.2103 91.129 86.9144 92.363 88.3402 93.9793C89.7834 95.5956 90.8962 97.5508 91.6787 99.8449C92.4785 102.122 92.8785 104.711 92.8785 107.614ZM84.9756 109.412V107.561C84.9756 105.545 84.793 103.773 84.4279 102.243C84.0627 100.714 83.5237 99.4278 82.8108 98.385C82.0979 97.3422 81.2285 96.5602 80.2026 96.0388C79.1767 95.5 78.003 95.2306 76.6815 95.2306C75.36 95.2306 74.1863 95.5 73.1604 96.0388C72.1519 96.5602 71.2912 97.3422 70.5782 98.385C69.8827 99.4278 69.3524 100.714 68.9872 102.243C68.6221 103.773 68.4395 105.545 68.4395 107.561V109.412C68.4395 111.411 68.6221 113.184 68.9872 114.731C69.3524 116.26 69.8914 117.555 70.6043 118.615C71.3172 119.658 72.1866 120.449 73.2125 120.987C74.2384 121.526 75.4121 121.795 76.7336 121.795C78.0551 121.795 79.2288 121.526 80.2547 120.987C81.2806 120.449 82.1413 119.658 82.8368 118.615C83.5324 117.555 84.0627 116.26 84.4279 114.731C84.793 113.184 84.9756 111.411 84.9756 109.412Z" fill="black"/>
<path d="M107.667 121.457L115.231 89.5214H119.456L120.421 94.8396L112.362 127.479H107.824L107.667 121.457ZM103.781 89.5214L110.041 121.457L109.519 127.479H104.459L96.0344 89.5214H103.781ZM127.072 121.326L133.254 89.5214H141L132.602 127.479H127.542L127.072 121.326ZM121.83 89.5214L129.446 121.587L129.237 127.479H124.699L116.587 94.8135L117.63 89.5214H121.83Z" fill="black"/>
</g>
<defs>
<clipPath id="clip0_26_2">
<rect width="141.15" height="129.19" fill="white"/>
</clipPath>
</defs>
</svg>
